<svg xmlns="http://www.w3.org/2000/svg" viewBox="0 0 512 512">
  <defs>
    <linearGradient id="grad1" x1="0%" y1="0%" x2="100%" y2="100%">
      <stop offset="0%" style="stop-color:#03a9f4;stop-opacity:1" />
      <stop offset="100%" style="stop-color:#0277bd;stop-opacity:1" />
    </linearGradient>
  </defs>
  <circle cx="256" cy="256" r="240" fill="url(#grad1)" />
  <path d="M368 256c0 61.9-50.1 112-112 112s-112-50.1-112-112c0-14.6 2.8-28.5 7.9-41.3l-50.8-22.6C93.6 211.8 88 233.2 88 256c0 92.8 75.2 168 168 168s168-75.2 168-168c0-22.8-5.6-44.2-13.1-63.9l-50.8 22.6c5.1 12.8 7.9 26.7 7.9 41.3z" fill="#ffffff"/>
  <path d="M256 144c-22.3 0-43.1 6.6-60.5 17.9l-45-45C181.6 94.7 217.2 80 256 80c92.8 0 168 75.2 168 168 0 22.8-5.6 44.2-13.1 63.9l-50.8 22.6c5.1-12.8 7.9-26.7 7.9-41.3 0-61.9-50.1-112-112-112z" fill="#ffffff" opacity="0.7"/>
  <path d="M256 192v128" stroke="#ffffff" stroke-width="24" stroke-linecap="round"/>
  <path d="M192 256h128" stroke="#ffffff" stroke-width="24" stroke-linecap="round"/>
  <circle cx="256" cy="256" r="24" fill="#ffffff"/>
</svg>